<mxfile host="app.diagrams.net" agent="Mozilla/5.0 (Windows NT 10.0; Win64; x64) AppleWebKit/537.36 (KHTML, like Gecko) Chrome/129.0.0.0 Safari/537.36" version="24.7.17">
  <diagram id="kgpKYQtTHZ0yAKxKKP6v" name="Page-1">
    <mxGraphModel dx="880" dy="860" grid="0" gridSize="10" guides="1" tooltips="1" connect="1" arrows="1" fold="1" page="0" pageScale="1" pageWidth="850" pageHeight="1100" math="0" shadow="0">
      <root>
        <mxCell id="0" />
        <mxCell id="1" parent="0" />
        <mxCell id="Tf2gWwa-TeqLUiWzJEqZ-2" value="Animal" style="html=1;whiteSpace=wrap;" parent="1" vertex="1">
          <mxGeometry x="123" y="98" width="110" height="50" as="geometry" />
        </mxCell>
        <mxCell id="Tf2gWwa-TeqLUiWzJEqZ-4" value="Usuario" style="html=1;whiteSpace=wrap;" parent="1" vertex="1">
          <mxGeometry x="507" y="100" width="110" height="50" as="geometry" />
        </mxCell>
        <mxCell id="Tf2gWwa-TeqLUiWzJEqZ-7" value="" style="endArrow=none;html=1;rounded=0;" parent="1" source="Tf2gWwa-TeqLUiWzJEqZ-2" target="Tf2gWwa-TeqLUiWzJEqZ-9" edge="1">
          <mxGeometry width="50" height="50" relative="1" as="geometry">
            <mxPoint x="399" y="266" as="sourcePoint" />
            <mxPoint x="179.6713615023475" y="301" as="targetPoint" />
            <Array as="points">
              <mxPoint x="175" y="340" />
            </Array>
          </mxGeometry>
        </mxCell>
        <mxCell id="Tf2gWwa-TeqLUiWzJEqZ-9" value="Realizar doação" style="strokeWidth=2;html=1;shape=mxgraph.flowchart.decision;whiteSpace=wrap;" parent="1" vertex="1">
          <mxGeometry x="310" y="301" width="130" height="70" as="geometry" />
        </mxCell>
        <mxCell id="Tf2gWwa-TeqLUiWzJEqZ-13" value="" style="endArrow=none;html=1;rounded=0;" parent="1" source="Tf2gWwa-TeqLUiWzJEqZ-4" target="Tf2gWwa-TeqLUiWzJEqZ-9" edge="1">
          <mxGeometry width="50" height="50" relative="1" as="geometry">
            <mxPoint x="399" y="266" as="sourcePoint" />
            <mxPoint x="449" y="216" as="targetPoint" />
            <Array as="points">
              <mxPoint x="562" y="337" />
            </Array>
          </mxGeometry>
        </mxCell>
        <mxCell id="Tf2gWwa-TeqLUiWzJEqZ-22" value="(1,1)" style="text;whiteSpace=wrap;html=1;" parent="1" vertex="1">
          <mxGeometry x="147" y="145" width="53" height="36" as="geometry" />
        </mxCell>
        <mxCell id="Tf2gWwa-TeqLUiWzJEqZ-24" value="(1,n)" style="text;whiteSpace=wrap;html=1;" parent="1" vertex="1">
          <mxGeometry x="561" y="148" width="53" height="36" as="geometry" />
        </mxCell>
        <mxCell id="zifrnwKFMuA4akeZgK9n-2" value="" style="endArrow=none;html=1;rounded=0;" parent="1" edge="1">
          <mxGeometry width="50" height="50" relative="1" as="geometry">
            <mxPoint x="395" y="-155" as="sourcePoint" />
            <mxPoint x="395" y="-155" as="targetPoint" />
          </mxGeometry>
        </mxCell>
        <mxCell id="zifrnwKFMuA4akeZgK9n-17" value="" style="rounded=0;whiteSpace=wrap;html=1;" parent="1" vertex="1">
          <mxGeometry x="315" y="92.5" width="120" height="60" as="geometry" />
        </mxCell>
        <mxCell id="zifrnwKFMuA4akeZgK9n-18" value="A Doar" style="rhombus;whiteSpace=wrap;html=1;" parent="1" vertex="1">
          <mxGeometry x="315" y="93.5" width="120" height="59.5" as="geometry" />
        </mxCell>
        <mxCell id="zifrnwKFMuA4akeZgK9n-20" value="compartilhar" style="strokeWidth=2;html=1;shape=mxgraph.flowchart.decision;whiteSpace=wrap;" parent="1" vertex="1">
          <mxGeometry x="310" y="-4" width="130" height="70" as="geometry" />
        </mxCell>
        <mxCell id="zifrnwKFMuA4akeZgK9n-21" value="Favoritar" style="strokeWidth=2;html=1;shape=mxgraph.flowchart.decision;whiteSpace=wrap;" parent="1" vertex="1">
          <mxGeometry x="310" y="187" width="130" height="70" as="geometry" />
        </mxCell>
        <mxCell id="zifrnwKFMuA4akeZgK9n-22" value="" style="endArrow=none;html=1;rounded=0;" parent="1" source="Tf2gWwa-TeqLUiWzJEqZ-4" edge="1">
          <mxGeometry width="50" height="50" relative="1" as="geometry">
            <mxPoint x="345" y="213" as="sourcePoint" />
            <mxPoint x="426" y="40" as="targetPoint" />
          </mxGeometry>
        </mxCell>
        <mxCell id="zifrnwKFMuA4akeZgK9n-23" value="" style="endArrow=none;html=1;rounded=0;" parent="1" source="zifrnwKFMuA4akeZgK9n-17" target="zifrnwKFMuA4akeZgK9n-20" edge="1">
          <mxGeometry width="50" height="50" relative="1" as="geometry">
            <mxPoint x="345" y="213" as="sourcePoint" />
            <mxPoint x="395" y="163" as="targetPoint" />
          </mxGeometry>
        </mxCell>
        <mxCell id="zifrnwKFMuA4akeZgK9n-24" value="" style="endArrow=none;html=1;rounded=0;entryX=0.8;entryY=0.3;entryDx=0;entryDy=0;entryPerimeter=0;" parent="1" source="Tf2gWwa-TeqLUiWzJEqZ-4" target="zifrnwKFMuA4akeZgK9n-21" edge="1">
          <mxGeometry width="50" height="50" relative="1" as="geometry">
            <mxPoint x="345" y="213" as="sourcePoint" />
            <mxPoint x="395" y="163" as="targetPoint" />
          </mxGeometry>
        </mxCell>
        <mxCell id="zifrnwKFMuA4akeZgK9n-25" value="" style="endArrow=none;html=1;rounded=0;" parent="1" source="zifrnwKFMuA4akeZgK9n-21" target="zifrnwKFMuA4akeZgK9n-18" edge="1">
          <mxGeometry width="50" height="50" relative="1" as="geometry">
            <mxPoint x="345" y="213" as="sourcePoint" />
            <mxPoint x="395" y="163" as="targetPoint" />
          </mxGeometry>
        </mxCell>
        <mxCell id="TE1iuiVnscFcADd927xQ-1" value="" style="endArrow=none;html=1;rounded=0;" edge="1" parent="1" source="Tf2gWwa-TeqLUiWzJEqZ-2" target="zifrnwKFMuA4akeZgK9n-17">
          <mxGeometry width="50" height="50" relative="1" as="geometry">
            <mxPoint x="345" y="191" as="sourcePoint" />
            <mxPoint x="395" y="141" as="targetPoint" />
          </mxGeometry>
        </mxCell>
        <mxCell id="TE1iuiVnscFcADd927xQ-2" value="(1,1)" style="text;whiteSpace=wrap;html=1;" vertex="1" parent="1">
          <mxGeometry x="235" y="119" width="53" height="36" as="geometry" />
        </mxCell>
        <mxCell id="TE1iuiVnscFcADd927xQ-3" value="(1,1)" style="text;whiteSpace=wrap;html=1;" vertex="1" parent="1">
          <mxGeometry x="286" y="119" width="53" height="36" as="geometry" />
        </mxCell>
        <mxCell id="TE1iuiVnscFcADd927xQ-4" value="(1,N)" style="text;whiteSpace=wrap;html=1;" vertex="1" parent="1">
          <mxGeometry x="476" y="102" width="31" height="22" as="geometry" />
        </mxCell>
        <mxCell id="TE1iuiVnscFcADd927xQ-5" value="" style="endArrow=none;html=1;rounded=0;" edge="1" parent="1" source="Tf2gWwa-TeqLUiWzJEqZ-4" target="zifrnwKFMuA4akeZgK9n-17">
          <mxGeometry width="50" height="50" relative="1" as="geometry">
            <mxPoint x="345" y="191" as="sourcePoint" />
            <mxPoint x="395" y="141" as="targetPoint" />
          </mxGeometry>
        </mxCell>
        <mxCell id="TE1iuiVnscFcADd927xQ-7" value="(1,1)" style="text;whiteSpace=wrap;html=1;" vertex="1" parent="1">
          <mxGeometry x="437" y="102" width="28" height="22" as="geometry" />
        </mxCell>
        <mxCell id="TE1iuiVnscFcADd927xQ-8" value="(1,N)" style="text;whiteSpace=wrap;html=1;" vertex="1" parent="1">
          <mxGeometry x="518" y="78" width="55" height="36" as="geometry" />
        </mxCell>
        <mxCell id="TE1iuiVnscFcADd927xQ-9" value="(0,N)" style="text;whiteSpace=wrap;html=1;" vertex="1" parent="1">
          <mxGeometry x="374" y="70" width="55" height="36" as="geometry" />
        </mxCell>
        <mxCell id="TE1iuiVnscFcADd927xQ-10" value="(1,N)" style="text;whiteSpace=wrap;html=1;" vertex="1" parent="1">
          <mxGeometry x="509" y="145" width="41" height="36" as="geometry" />
        </mxCell>
        <mxCell id="TE1iuiVnscFcADd927xQ-11" value="(1,1)" style="text;whiteSpace=wrap;html=1;" vertex="1" parent="1">
          <mxGeometry x="374" y="148" width="53" height="36" as="geometry" />
        </mxCell>
      </root>
    </mxGraphModel>
  </diagram>
</mxfile>
